<svg width="50" height="50" viewBox="0 0 50 50" fill="none" xmlns="http://www.w3.org/2000/svg">
<g clip-path="url(#clip0)">
<path d="M36.3565 4.95679H2.81553C1.26299 4.95679 0 6.21978 0 7.77222V27.8949C0 29.4474 1.26299 30.7105 2.81553 30.7105H4.99044V38.2017C4.99044 38.6786 5.27774 39.1088 5.71857 39.2914C5.86446 39.352 6.01779 39.3813 6.16974 39.3813C6.47677 39.3813 6.77833 39.2613 7.00402 39.0358L15.3293 30.7105H16.9996C17.6511 30.7105 18.1791 30.1825 18.1791 29.5311C18.1791 28.8795 17.6509 28.3515 16.9996 28.3515C16.9996 28.3515 14.7838 28.353 14.7607 28.3554C14.4861 28.374 14.2165 28.4871 14.0066 28.697L7.34943 35.3541C7.34943 35.3541 7.34738 29.4564 7.34357 29.4259C7.29035 28.8237 6.78527 28.3515 6.16935 28.3515H2.81553C2.56377 28.3515 2.35909 28.1467 2.35909 27.895V7.77222C2.35909 7.52046 2.56387 7.31578 2.81553 7.31578H36.3565C36.6083 7.31578 36.813 7.52056 36.813 7.77222V15.4925C36.813 16.1439 37.3412 16.6719 37.9925 16.6719C38.6437 16.6719 39.172 16.1439 39.172 15.4925V7.77222C39.172 6.21978 37.909 4.95679 36.3565 4.95679Z" fill="#4A4D4E"/>
<path d="M47.1847 19.3841H23.7066C22.1542 19.3841 20.8911 20.6471 20.8911 22.1996V35.9272C20.8911 37.4796 22.1541 38.7427 23.7066 38.7427H38.4053L44.3604 44.6978C44.5861 44.9235 44.8877 45.0433 45.1947 45.0433C45.3466 45.0433 45.4999 45.0139 45.6458 44.9535C46.0865 44.7709 46.374 44.3409 46.374 43.8637V38.7426H47.1846C48.737 38.7426 50.0001 37.4796 50.0001 35.9271V22.1995C50.0002 20.6471 48.7372 19.3841 47.1847 19.3841ZM47.6412 35.9272C47.6412 36.1789 47.4365 36.3836 47.1848 36.3836H45.195C44.5742 36.3836 44.0666 36.8633 44.02 37.4722C44.017 37.498 44.0151 41.0162 44.0151 41.0162L39.7324 36.7334C39.728 36.729 39.7233 36.7248 39.7188 36.7203C39.702 36.7039 39.6861 36.6896 39.671 36.6768C39.4634 36.4948 39.1922 36.3835 38.8946 36.3835H23.7066C23.4549 36.3835 23.2502 36.1788 23.2502 35.9271V22.1995C23.2502 21.9478 23.455 21.7431 23.7066 21.7431H47.1848C47.4365 21.7431 47.6412 21.9479 47.6412 22.1995V35.9272Z" fill="#4A4D4E"/>
<path d="M35.446 27.884C34.7949 27.884 34.2665 28.4125 34.2665 29.0635C34.2665 29.7146 34.7949 30.243 35.446 30.243C36.0972 30.243 36.6255 29.7146 36.6255 29.0635C36.6255 28.4125 36.0971 27.884 35.446 27.884Z" fill="#4A4D4E"/>
<path d="M30.3193 12.7549H8.85232C8.20095 12.7549 7.67282 13.283 7.67282 13.9344C7.67282 14.5859 8.20105 15.1139 8.85232 15.1139H30.3193C30.9707 15.1139 31.4988 14.5859 31.4988 13.9344C31.4988 13.283 30.9707 12.7549 30.3193 12.7549Z" fill="#4A4D4E"/>
<path d="M16.9993 20.5532H8.85232C8.20095 20.5532 7.67282 21.0812 7.67282 21.7327C7.67282 22.3841 8.20105 22.9121 8.85232 22.9121H16.9993C17.6508 22.9121 18.1788 22.3841 18.1788 21.7327C18.1788 21.0812 17.6507 20.5532 16.9993 20.5532Z" fill="#4A4D4E"/>
<path d="M29.9648 27.884C29.3138 27.884 28.7853 28.4125 28.7853 29.0635C28.7853 29.7146 29.3138 30.243 29.9648 30.243C30.616 30.243 31.1443 29.7146 31.1443 29.0635C31.1443 28.4125 30.616 27.884 29.9648 27.884Z" fill="#4A4D4E"/>
<path d="M40.9258 27.884C40.2747 27.884 39.7463 28.4125 39.7463 29.0635C39.7463 29.7146 40.2747 30.243 40.9258 30.243C41.577 30.243 42.1053 29.7146 42.1053 29.0635C42.1053 28.4125 41.5769 27.884 40.9258 27.884Z" fill="#4A4D4E"/>
</g>
<defs>
<clipPath id="clip0">
<rect width="50" height="50" fill="white"/>
</clipPath>
</defs>
</svg>
