<svg width="50" height="50" viewBox="0 0 50 50" fill="none" xmlns="http://www.w3.org/2000/svg">
<path d="M41.2938 12.9309H8.70666C8.11242 12.9309 7.63058 13.4126 7.63058 14.007V30.2594C7.63058 30.8537 8.11242 31.3354 8.70666 31.3354C9.3009 31.3354 9.78274 30.8537 9.78274 30.2594V15.083H40.2178V30.2593C40.2178 30.8536 40.6996 31.3354 41.2938 31.3354C41.8881 31.3354 42.3699 30.8536 42.3699 30.2593V14.0069C42.3698 13.4126 41.888 12.9309 41.2938 12.9309Z" fill="#4A4D4E"/>
<path d="M49.0316 34.1018H47.0497V11.5036C47.0497 9.71004 45.5905 8.25085 43.797 8.25085H6.20314C4.40948 8.25085 2.9504 9.71004 2.9504 11.5036V34.1018H0.968459C0.433595 34.1018 0 34.5353 0 35.0702V36.9714C0 39.6059 2.14327 41.7492 4.77774 41.7492H45.2223C47.8567 41.7492 50 39.6059 50 36.9714V35.0702C50.0001 34.5353 49.5666 34.1018 49.0316 34.1018ZM5.10245 11.5036C5.10245 10.8968 5.5963 10.4029 6.20314 10.4029H43.7968C44.4038 10.4029 44.8975 10.8967 44.8975 11.5036V34.1018H30.3271C30.2585 34.0995 30.1877 34.1054 30.1173 34.119C29.6615 34.2067 29.3321 34.6057 29.3321 35.0699C29.3321 35.8873 28.667 36.5523 27.8498 36.5523H22.1504C21.333 36.5523 20.6681 35.8872 20.6681 35.0699C20.6681 34.5276 20.2188 34.09 19.6772 34.1016H5.10245V11.5036ZM48.0632 36.9714C48.0632 38.5379 46.7887 39.8122 45.2224 39.8122H4.77774C3.21133 39.8122 1.93692 38.5379 1.93692 36.9714V36.0387H18.8708C19.2895 37.4538 20.6013 38.4893 22.1503 38.4893H27.8497C29.3987 38.4893 30.7105 37.4537 31.1293 36.0387H48.0633V36.9714H48.0632Z" fill="#4A4D4E"/>
<path d="M26.595 19.1855C26.1747 18.7653 25.4935 18.7653 25.0731 19.1855L18.3058 25.9531C17.8856 26.3733 17.8856 27.0547 18.3058 27.4749C18.516 27.6851 18.7913 27.79 19.0666 27.79C19.342 27.79 19.6173 27.6849 19.8275 27.4749L26.595 20.7074C27.0152 20.2872 27.0152 19.6058 26.595 19.1855Z" fill="#4A4D4E"/>
<path d="M30.6064 23.1073C30.1861 22.6871 29.505 22.6871 29.0846 23.1073L26.3887 25.8032C25.9685 26.2234 25.9685 26.9047 26.3887 27.3251C26.5989 27.5352 26.8743 27.6402 27.1496 27.6402C27.4251 27.6402 27.7003 27.5352 27.9104 27.3251L30.6063 24.6292C31.0266 24.2089 31.0266 23.5276 30.6064 23.1073Z" fill="#4A4D4E"/>
</svg>
