<svg width="50" height="50" viewBox="0 0 50 50" fill="none" xmlns="http://www.w3.org/2000/svg">
<path d="M44.691 13.1524C41.7637 13.1524 39.3821 15.534 39.3821 18.4613C39.3821 19.529 39.7 20.5232 40.2446 21.3565L34.5089 27.0922C33.6755 26.5476 32.6813 26.2298 31.6136 26.2298C30.5073 26.2298 29.479 26.5704 28.6277 27.1517L22.833 21.3561C23.3774 20.5228 23.6951 19.5287 23.6951 18.4612C23.6951 15.5339 21.3135 13.1523 18.3862 13.1523C15.4589 13.1523 13.0773 15.5339 13.0773 18.4612C13.0773 19.5287 13.3951 20.5225 13.9393 21.3558L8.2035 27.0918C7.3703 26.5474 6.37626 26.2298 5.30888 26.2298C2.38154 26.2298 0 28.6114 0 31.5387C0 34.4661 2.38154 36.8476 5.30888 36.8476C8.23621 36.8476 10.6178 34.4661 10.6178 31.5387C10.6178 30.4711 10.2999 29.4768 9.75535 28.6434L15.491 22.9078C16.3244 23.4523 17.3186 23.7702 18.3863 23.7702C19.4539 23.7702 20.4481 23.4523 21.2814 22.9078L27.1082 28.7353C26.5998 29.5496 26.3048 30.5101 26.3048 31.5386C26.3048 34.466 28.6864 36.8475 31.6137 36.8475C34.541 36.8475 36.9226 34.466 36.9226 31.5386C36.9226 30.4712 36.6048 29.4772 36.0606 28.644L41.7965 22.9081C42.6298 23.4524 43.6238 23.7701 44.6911 23.7701C47.6185 23.7701 50 21.3886 50 18.4612C50 15.5338 47.6184 13.1524 44.691 13.1524ZM5.30888 34.6532C3.5915 34.6532 2.19433 33.256 2.19433 31.5387C2.19433 29.8214 3.5915 28.4242 5.30888 28.4242C7.02616 28.4242 8.42342 29.8214 8.42342 31.5387C8.42342 33.256 7.02626 34.6532 5.30888 34.6532ZM18.3863 21.5758C16.669 21.5758 15.2717 20.1786 15.2717 18.4612C15.2717 16.7439 16.6689 15.3467 18.3863 15.3467C20.1037 15.3467 21.5008 16.7438 21.5008 18.4612C21.5008 20.1786 20.1037 21.5758 18.3863 21.5758ZM31.6136 34.6532C29.8963 34.6532 28.4991 33.256 28.4991 31.5386C28.4991 29.8213 29.8962 28.4241 31.6136 28.4241C33.3309 28.4241 34.7282 29.8213 34.7282 31.5386C34.7281 33.256 33.3309 34.6532 31.6136 34.6532ZM44.691 21.5758C42.9737 21.5758 41.5765 20.1786 41.5765 18.4612C41.5765 16.7439 42.9736 15.3467 44.691 15.3467C46.4083 15.3467 47.8056 16.7438 47.8056 18.4612C47.8056 20.1786 46.4083 21.5758 44.691 21.5758Z" fill="#4A4D4E"/>
<path d="M17.2627 26.6325C16.8342 26.2041 16.1396 26.2041 15.7111 26.6325L13.4793 28.8643C13.0508 29.2927 13.0508 29.9874 13.4794 30.416C13.6936 30.6302 13.9744 30.7373 14.2551 30.7373C14.5359 30.7373 14.8168 30.6301 15.0309 30.416L17.2627 28.1841C17.6914 27.7557 17.6914 27.0609 17.2627 26.6325Z" fill="#4A4D4E"/>
<path d="M36.5197 19.6229C36.0911 19.1945 35.3966 19.1945 34.9679 19.623L32.7361 21.8548C32.3077 22.2832 32.3077 22.978 32.7361 23.4065C32.9504 23.6206 33.2312 23.7278 33.512 23.7278C33.7928 23.7278 34.0735 23.6205 34.2877 23.4064L36.5196 21.1745C36.9481 20.746 36.9481 20.0513 36.5197 19.6229Z" fill="#4A4D4E"/>
</svg>
