<svg width="50" height="50" viewBox="0 0 50 50" fill="none" xmlns="http://www.w3.org/2000/svg">
<path d="M46.8152 8.70416H3.18477C1.42871 8.70416 0 10.1329 0 11.8889V38.1112C0 39.8672 1.42871 41.296 3.18477 41.296H46.8152C48.5713 41.296 50 39.8672 50 38.1112V11.8889C50 10.1329 48.5713 8.70416 46.8152 8.70416ZM47.8769 38.1111C47.8769 38.6964 47.4006 39.1727 46.8152 39.1727H3.18477C2.59941 39.1727 2.12314 38.6964 2.12314 38.1111V11.8888C2.12314 11.3035 2.59941 10.8272 3.18477 10.8272H46.8152C47.4006 10.8272 47.8769 11.3035 47.8769 11.8888V38.1111Z" fill="#0093E6"/>
<path d="M41.2212 18.0181H29.8282C29.2418 18.0181 28.7665 18.4935 28.7665 19.0797C28.7665 19.6661 29.2418 20.1414 29.8282 20.1414H41.2212C41.8076 20.1414 42.2828 19.6661 42.2828 19.0797C42.2828 18.4935 41.8076 18.0181 41.2212 18.0181Z" fill="#0093E6"/>
<path d="M41.2212 23.9385H29.8282C29.2418 23.9385 28.7665 24.4138 28.7665 25.0001C28.7665 25.5863 29.2418 26.0617 29.8282 26.0617H41.2212C41.8076 26.0617 42.2828 25.5863 42.2828 25.0001C42.2828 24.4138 41.8076 23.9385 41.2212 23.9385Z" fill="#0093E6"/>
<path d="M41.2212 29.8586H29.8282C29.2418 29.8586 28.7665 30.334 28.7665 30.9203C28.7665 31.5065 29.2418 31.9819 29.8282 31.9819H41.2212C41.8076 31.9819 42.2828 31.5065 42.2828 30.9203C42.2828 30.334 41.8076 29.8586 41.2212 29.8586Z" fill="#0093E6"/>
<path d="M19.6041 28.344C19.5827 28.3426 17.6397 28.4235 17.1149 26.3216C17.824 25.7634 18.419 24.988 18.8442 24.0618C18.8756 24.0649 18.9071 24.0688 18.9383 24.0688C19.2278 24.0687 19.508 23.9369 19.6922 23.7003C20.5837 22.5552 21.0473 21.0685 20.9977 19.5139C20.8946 16.2909 18.6523 13.7501 15.8891 13.7202C15.8135 13.7172 15.7462 13.7191 15.6918 13.7211C15.6906 13.7211 15.6893 13.7212 15.6879 13.7212C15.0175 13.4306 14.3113 13.2945 13.5834 13.3184C12.0276 13.3681 10.6 14.1388 9.5641 15.4886C8.57142 16.7819 8.0557 18.4647 8.11205 20.2276C8.12162 20.5258 8.14525 20.8008 8.18314 21.0614C8.28597 21.812 8.49301 22.5315 8.79847 23.1998C8.94525 23.521 9.25736 23.7351 9.6101 23.7562C9.70609 23.7624 9.80033 23.7525 9.89095 23.7307C10.3233 24.8023 10.9765 25.694 11.7665 26.3166C11.2522 28.415 9.29779 28.3428 9.2764 28.3442C7.18763 28.4126 5.50922 30.1318 5.50922 32.2368V36.1053C5.50922 36.6331 5.93695 37.0608 6.46468 37.0608H22.4158C22.9435 37.0608 23.3712 36.6331 23.3712 36.1053V32.2368C23.3713 30.1316 21.6928 28.4124 19.6041 28.344ZM10.0881 20.8816C10.0837 20.8524 10.0795 20.823 10.0754 20.7936C10.0469 20.5971 10.0294 20.3918 10.0222 20.1661C9.97982 18.8436 10.3555 17.5957 11.0801 16.6519C11.761 15.7647 12.672 15.2591 13.6448 15.228C13.6769 15.2269 14.4405 15.1665 15.0828 15.5461C15.2172 15.6256 15.382 15.6493 15.5373 15.6455C15.557 15.645 15.8433 15.6305 15.8578 15.6306C17.5697 15.6419 19.0189 17.4112 19.088 19.5748C19.096 19.8226 19.0861 20.0675 19.0591 20.3071C18.4268 19.2217 17.4875 18.3813 16.3698 17.9113C16.1295 17.8104 15.8584 17.8119 15.6194 17.9155C15.3802 18.0192 15.1939 18.2162 15.1035 18.4606C15.0297 18.66 14.9401 18.8544 14.8372 19.0384C14.5864 19.4871 14.0731 19.7516 13.4978 19.7336C13.3833 19.7297 13.2677 19.7295 13.1539 19.7331C12.5941 19.751 12.0481 19.8578 11.5273 20.0518C11.0071 20.2483 10.5236 20.5272 10.0881 20.8816ZM11.4197 22.2684C11.6618 22.0895 11.9278 21.9572 12.1986 21.8412C12.6923 21.6295 13.3595 21.641 13.4317 21.6435C14.6624 21.6853 15.786 21.1094 16.4112 20.1284C16.8987 20.5019 17.3013 21.005 17.5822 21.6012C17.2863 23.7455 15.9518 25.3767 14.4375 25.3767C13.0866 25.3767 11.8741 24.0989 11.4197 22.2684ZM13.5192 27.18C13.8182 27.2505 14.1251 27.2876 14.4375 27.2876C14.7529 27.2876 15.0617 27.2502 15.3617 27.1802C15.6696 28.1634 16.3163 28.9978 17.1638 29.5478C16.7562 30.6695 15.6778 31.4559 14.4404 31.4559C13.203 31.4559 12.1245 30.6695 11.7168 29.5477C12.5645 28.9976 13.2113 28.1633 13.5192 27.18ZM7.42025 35.1498V32.2367C7.42025 31.1421 8.31078 30.2516 9.40541 30.2516C9.42728 30.2516 9.77582 30.2316 9.92513 30.2115C10.6054 32.0672 12.3916 33.3669 14.4403 33.3669C16.4889 33.3669 18.2751 32.0672 18.9554 30.2115C19.1049 30.2316 19.4532 30.2516 19.475 30.2516C20.5698 30.2516 21.4602 31.1422 21.4602 32.2367V35.1498H7.42025Z" fill="#0093E6"/>
</svg>
