<svg width="50" height="50" viewBox="0 0 50 50" fill="none" xmlns="http://www.w3.org/2000/svg">
<path d="M25.0005 40.8333C23.471 40.8333 22.2267 42.0775 22.2267 43.607C22.2267 45.1365 23.471 46.3807 25.0005 46.3807C26.53 46.3807 27.7742 45.1365 27.7742 43.607C27.7742 42.0775 26.5299 40.8333 25.0005 40.8333ZM25.0005 44.4598C24.5302 44.4598 24.1476 44.0772 24.1476 43.607C24.1476 43.1368 24.5302 42.7542 25.0005 42.7542C25.4707 42.7542 25.8533 43.1368 25.8533 43.607C25.8531 44.0772 25.4705 44.4598 25.0005 44.4598Z" fill="#4A4D4E"/>
<path d="M29.5497 3.94989H24.6276C24.0676 3.94989 23.6137 4.4038 23.6137 4.96376C23.6137 5.52372 24.0677 5.97762 24.6276 5.97762H29.5497C30.1097 5.97762 30.5636 5.52372 30.5636 4.96376C30.5636 4.4038 30.1097 3.94989 29.5497 3.94989Z" fill="#4A4D4E"/>
<path d="M21.5147 6.05309C22.1026 6.05309 22.5791 5.57656 22.5791 4.98873C22.5791 4.40091 22.1026 3.92438 21.5147 3.92438C20.9269 3.92438 20.4504 4.40091 20.4504 4.98873C20.4504 5.57656 20.9269 6.05309 21.5147 6.05309Z" fill="#4A4D4E"/>
<path d="M36.826 0H13.1735C11.4082 0 9.97192 1.43623 9.97192 3.20156V46.7983C9.97192 48.5637 11.4082 49.9999 13.1735 49.9999H36.8259C38.5913 49.9999 40.0275 48.5637 40.0275 46.7983V3.20156C40.0276 1.43623 38.5914 0 36.826 0ZM37.8932 46.7984C37.8932 47.3869 37.4145 47.8656 36.826 47.8656H13.1735C12.585 47.8656 12.1063 47.3869 12.1063 46.7984V3.20156C12.1063 2.61309 12.585 2.13438 13.1735 2.13438H36.8259C37.4144 2.13438 37.8931 2.61309 37.8931 3.20156V46.7984H37.8932Z" fill="#4A4D4E"/>
<path d="M26.7989 20.0396C26.382 19.623 25.7065 19.623 25.2895 20.0396L20.1632 25.166C19.7465 25.5827 19.7465 26.2585 20.1633 26.6753C20.3717 26.8837 20.6448 26.988 20.9178 26.988C21.1909 26.988 21.4641 26.8837 21.6724 26.6754L26.7988 21.5489C27.2156 21.1321 27.2156 20.4564 26.7989 20.0396Z" fill="#4A4D4E"/>
<path d="M29.8369 23.0103C29.4201 22.5937 28.7445 22.5937 28.3275 23.0103L26.2853 25.0525C25.8687 25.4692 25.8687 26.145 26.2854 26.5619C26.4938 26.7702 26.767 26.8745 27.04 26.8745C27.3131 26.8745 27.5862 26.7702 27.7946 26.5619L29.8368 24.5197C30.2537 24.1029 30.2537 23.4271 29.8369 23.0103Z" fill="#4A4D4E"/>
<path d="M34.7039 7.89954H15.2967C14.7662 7.89954 14.3362 8.32952 14.3362 8.85999V38.2814C14.3362 38.8118 14.7662 39.2418 15.2967 39.2418H34.7039C35.2344 39.2418 35.6644 38.8118 35.6644 38.2814V8.85999C35.6644 8.32961 35.2344 7.89954 34.7039 7.89954ZM33.7434 37.3209H16.257V9.82053H33.7434V37.3209Z" fill="#4A4D4E"/>
</svg>
